<svg width="1200" height="1600" viewBox="0 0 1200 1600" fill="none" xmlns="http://www.w3.org/2000/svg">
  <rect width="1200" height="1600" fill="#0D0907"/>
  <rect x="40" y="40" width="1120" height="1520" rx="36" fill="url(#paint0_linear)" stroke="#F5B642" stroke-opacity="0.22" stroke-width="2"/>
  <circle cx="940" cy="260" r="160" fill="#F5B642" fill-opacity="0.12"/>
  <circle cx="250" cy="1260" r="210" fill="#E85D2A" fill-opacity="0.16"/>
  <path d="M600 546C704.934 546 790 460.934 790 356C790 251.066 704.934 166 600 166C495.066 166 410 251.066 410 356C410 460.934 495.066 546 600 546Z" fill="#1B1510" stroke="#FFF1D6" stroke-opacity="0.12" stroke-width="2"/>
  <path d="M884 1218C884 1061.15 756.851 934 600 934C443.149 934 316 1061.15 316 1218V1274H884V1218Z" fill="#1B1510" stroke="#FFF1D6" stroke-opacity="0.08" stroke-width="2"/>
  <text x="600" y="1394" fill="#F5B642" font-family="Inter, system-ui, sans-serif" font-size="44" font-weight="700" text-anchor="middle" letter-spacing="12">BTLTECH</text>
  <text x="600" y="1452" fill="#FFF1D6" font-family="Inter, system-ui, sans-serif" font-size="30" font-weight="600" text-anchor="middle">Press Visual</text>
  <text x="600" y="1500" fill="#B8A88C" font-family="Inter, system-ui, sans-serif" font-size="22" text-anchor="middle">Official press photography can replace this file when approved</text>
  <defs>
    <linearGradient id="paint0_linear" x1="170" y1="148" x2="1015" y2="1460" gradientUnits="userSpaceOnUse">
      <stop stop-color="#21150E"/>
      <stop offset="0.56" stop-color="#100B08"/>
      <stop offset="1" stop-color="#2A130D"/>
    </linearGradient>
  </defs>
</svg>
