<svg width="1280" height="820" viewBox="0 0 1280 820" fill="none" xmlns="http://www.w3.org/2000/svg">
  <rect width="1280" height="820" rx="22" fill="url(#g)" stroke="#F5B642" stroke-opacity="0.18" stroke-width="2"/>
  <path d="M0 22 Q0 0 22 0 H1258 Q1280 0 1280 22 V92 H0 Z" fill="#0E0A08" fill-opacity="0.9"/>
  <circle cx="44" cy="46" r="11" fill="#E85D2A"/>
  <circle cx="80" cy="46" r="11" fill="#F5B642"/>
  <circle cx="116" cy="46" r="11" fill="#7FB069"/>
  <text x="640" y="54" fill="#B8A88C" font-family="Inter, system-ui, sans-serif" font-size="22" font-weight="600" text-anchor="middle" letter-spacing="3">Lyrid — Sync</text>
  <line x1="380" y1="92" x2="380" y2="820" stroke="#FFF1D6" stroke-opacity="0.06" stroke-width="2"/>
  <text x="40" y="138" fill="#F5B642" font-family="Inter, system-ui, sans-serif" font-size="16" font-weight="700" letter-spacing="3">PROJECTS</text>
  <rect x="40" y="116" width="300" height="52" rx="12" fill="#F5B642" fill-opacity="0.12" stroke="#F5B642" stroke-opacity="0.3"/><circle cx="66" cy="142" r="8" fill="#F5B642"/><text x="92" y="148" fill="#FFF1D6" font-family="Inter, system-ui, sans-serif" font-size="20" font-weight="700">Welcome to Lagos</text>
  <circle cx="66" cy="206" r="8" fill="#6F6555"/><text x="92" y="212" fill="#B8A88C" font-family="Inter, system-ui, sans-serif" font-size="20" font-weight="500">Omo Stacker</text>
  <circle cx="66" cy="270" r="8" fill="#6F6555"/><text x="92" y="276" fill="#B8A88C" font-family="Inter, system-ui, sans-serif" font-size="20" font-weight="500">Choko So Cool</text>
  <circle cx="66" cy="334" r="8" fill="#6F6555"/><text x="92" y="340" fill="#B8A88C" font-family="Inter, system-ui, sans-serif" font-size="20" font-weight="500">Just Dance</text>
  <circle cx="66" cy="398" r="8" fill="#6F6555"/><text x="92" y="404" fill="#B8A88C" font-family="Inter, system-ui, sans-serif" font-size="20" font-weight="500">Born Blessed</text>
  
  <text x="800" y="210" fill="#F5B642" font-family="Inter, system-ui, sans-serif" font-size="22" font-weight="700" text-anchor="middle" letter-spacing="4">SYNC LYRICS TO THE BEAT</text>
  <text x="800" y="300" fill="#6F6555" font-family="Inter, system-ui, sans-serif" font-size="30" font-weight="600" text-anchor="middle">When the city wakes</text>
  <text x="800" y="370" fill="#F5B642" font-family="Inter, system-ui, sans-serif" font-size="40" font-weight="800" text-anchor="middle">we move to the sound</text>
  <text x="800" y="440" fill="#6F6555" font-family="Inter, system-ui, sans-serif" font-size="30" font-weight="600" text-anchor="middle">lights on the skyline</text>
  <text x="800" y="510" fill="#6F6555" font-family="Inter, system-ui, sans-serif" font-size="30" font-weight="600" text-anchor="middle">Lagos to London now</text>
  
  <rect x="470" y="683" width="7" height="14" rx="3" fill="#F5B642" fill-opacity="0.35"/><rect x="484" y="665" width="7" height="50" rx="3" fill="#F5B642" fill-opacity="0.64"/><rect x="498" y="652" width="7" height="76" rx="3" fill="#F5B642" fill-opacity="0.84"/><rect x="512" y="649" width="7" height="83" rx="3" fill="#F5B642" fill-opacity="0.90"/><rect x="526" y="655" width="7" height="70" rx="3" fill="#F5B642" fill-opacity="0.79"/><rect x="540" y="670" width="7" height="40" rx="3" fill="#F5B642" fill-opacity="0.56"/><rect x="554" y="678" width="7" height="25" rx="3" fill="#F5B642" fill-opacity="0.44"/><rect x="568" y="661" width="7" height="59" rx="3" fill="#F5B642" fill-opacity="0.71"/><rect x="582" y="650" width="7" height="80" rx="3" fill="#F5B642" fill-opacity="0.87"/><rect x="596" y="649" width="7" height="82" rx="3" fill="#F5B642" fill-opacity="0.88"/><rect x="610" y="659" width="7" height="63" rx="3" fill="#F5B642" fill-opacity="0.74"/><rect x="624" y="675" width="7" height="30" rx="3" fill="#F5B642" fill-opacity="0.48"/><rect x="638" y="673" width="7" height="35" rx="3" fill="#F5B642" fill-opacity="0.52"/><rect x="652" y="657" width="7" height="67" rx="3" fill="#F5B642" fill-opacity="0.77"/><rect x="666" y="649" width="7" height="83" rx="3" fill="#F5B642" fill-opacity="0.89"/><rect x="680" y="651" width="7" height="78" rx="3" fill="#F5B642" fill-opacity="0.86"/><rect x="694" y="663" width="7" height="54" rx="3" fill="#F5B642" fill-opacity="0.67"/><rect x="708" y="681" width="7" height="19" rx="3" fill="#F5B642" fill-opacity="0.39"/><rect x="722" y="667" width="7" height="46" rx="3" fill="#F5B642" fill-opacity="0.60"/><rect x="736" y="654" width="7" height="73" rx="3" fill="#F5B642" fill-opacity="0.82"/><rect x="750" y="649" width="7" height="83" rx="3" fill="#F5B642" fill-opacity="0.90"/><rect x="764" y="654" width="7" height="73" rx="3" fill="#F5B642" fill-opacity="0.82"/><rect x="778" y="668" width="7" height="45" rx="3" fill="#F5B642" fill-opacity="0.60"/><rect x="792" y="681" width="7" height="19" rx="3" fill="#F5B642" fill-opacity="0.40"/><rect x="806" y="663" width="7" height="55" rx="3" fill="#F5B642" fill-opacity="0.68"/><rect x="820" y="651" width="7" height="78" rx="3" fill="#F5B642" fill-opacity="0.86"/><rect x="834" y="649" width="7" height="83" rx="3" fill="#F5B642" fill-opacity="0.89"/><rect x="848" y="657" width="7" height="66" rx="3" fill="#F5B642" fill-opacity="0.77"/><rect x="862" y="673" width="7" height="35" rx="3" fill="#F5B642" fill-opacity="0.52"/><rect x="876" y="675" width="7" height="30" rx="3" fill="#F5B642" fill-opacity="0.48"/><rect x="890" y="659" width="7" height="63" rx="3" fill="#F5B642" fill-opacity="0.74"/><rect x="904" y="649" width="7" height="82" rx="3" fill="#F5B642" fill-opacity="0.89"/><rect x="918" y="650" width="7" height="80" rx="3" fill="#F5B642" fill-opacity="0.87"/><rect x="932" y="661" width="7" height="59" rx="3" fill="#F5B642" fill-opacity="0.70"/><rect x="946" y="678" width="7" height="24" rx="3" fill="#F5B642" fill-opacity="0.43"/><rect x="960" y="670" width="7" height="41" rx="3" fill="#F5B642" fill-opacity="0.56"/><rect x="974" y="655" width="7" height="70" rx="3" fill="#F5B642" fill-opacity="0.80"/><rect x="988" y="649" width="7" height="83" rx="3" fill="#F5B642" fill-opacity="0.90"/><rect x="1002" y="652" width="7" height="76" rx="3" fill="#F5B642" fill-opacity="0.84"/><rect x="1016" y="665" width="7" height="50" rx="3" fill="#F5B642" fill-opacity="0.63"/><rect x="1030" y="683" width="7" height="14" rx="3" fill="#F5B642" fill-opacity="0.35"/><rect x="1044" y="665" width="7" height="51" rx="3" fill="#F5B642" fill-opacity="0.64"/><rect x="1058" y="652" width="7" height="76" rx="3" fill="#F5B642" fill-opacity="0.84"/><rect x="1072" y="649" width="7" height="83" rx="3" fill="#F5B642" fill-opacity="0.90"/><rect x="1086" y="655" width="7" height="70" rx="3" fill="#F5B642" fill-opacity="0.79"/><rect x="1100" y="670" width="7" height="40" rx="3" fill="#F5B642" fill-opacity="0.56"/><rect x="700" y="610" width="3" height="150" fill="#E85D2A"/>
  <defs><linearGradient id="g" x1="60" y1="30" x2="1220" y2="800" gradientUnits="userSpaceOnUse">
    <stop stop-color="#1C130D"/><stop offset="0.5" stop-color="#100B08"/><stop offset="1" stop-color="#23110B"/></linearGradient></defs>
</svg>